<svg width="1920" height="784" viewBox="0 0 1920 784" fill="none" xmlns="http://www.w3.org/2000/svg">
<g filter="url(#filter0_df_458_217)">
<path d="M13.4297 732V32H272.43C328.43 32 374.763 41.3333 411.43 59.9999C448.096 78.6666 475.43 104.333 493.43 137C511.43 169.667 520.43 206.333 520.43 247C520.43 285.667 511.763 321.333 494.43 354C477.096 386 450.096 412 413.43 432C376.763 451.333 329.763 461 272.43 461H141.43V732H13.4297ZM141.43 357H264.43C309.096 357 341.096 347.333 360.43 328C380.43 308 390.43 281 390.43 247C390.43 212.333 380.43 185.333 360.43 166C341.096 146 309.096 136 264.43 136H141.43V357ZM1048.85 744C978.852 744 917.518 728.667 864.852 698C812.852 667.333 771.852 625 741.852 571C712.518 516.333 697.852 453.333 697.852 382C697.852 310.667 712.518 248 741.852 194C771.852 139.333 812.852 96.6667 864.852 66C917.518 35.3333 978.852 20 1048.85 20C1118.18 20 1179.18 35.3333 1231.85 66C1284.52 96.6667 1325.52 139.333 1354.85 194C1384.18 248 1398.85 310.667 1398.85 382C1398.85 453.333 1384.18 516.333 1354.85 571C1325.52 625 1284.52 667.333 1231.85 698C1179.18 728.667 1118.18 744 1048.85 744ZM1048.85 629C1115.52 629 1168.52 607 1207.85 563C1247.85 519 1267.85 458.667 1267.85 382C1267.85 305.333 1247.85 245 1207.85 201C1168.52 157 1115.52 135 1048.85 135C982.185 135 928.852 157 888.852 201C848.852 245 828.852 305.333 828.852 382C828.852 458.667 848.852 519 888.852 563C928.852 607 982.185 629 1048.85 629ZM1611.87 732V32H1868.87C1924.87 32 1970.87 41.6666 2006.87 61C2043.53 79.6667 2070.87 105.333 2088.87 138C2106.87 170 2115.87 205.667 2115.87 245C2115.87 287.667 2104.53 326.667 2081.87 362C2059.87 397.333 2025.2 423 1977.87 439L2122.87 732H1975.87L1845.87 456H1739.87V732H1611.87ZM1739.87 362H1860.87C1903.53 362 1934.87 351.667 1954.87 331C1974.87 310.333 1984.87 283 1984.87 249C1984.87 215.667 1974.87 189 1954.87 169C1935.53 149 1903.87 139 1859.87 139H1739.87V362ZM2497.91 732V135H2293.91V32H2830.91V135H2625.91V732H2497.91ZM3025.73 732V32H3477.73V135H3153.73V331H3415.73V432H3153.73V732H3025.73ZM4004.52 744C3934.52 744 3873.18 728.667 3820.52 698C3768.52 667.333 3727.52 625 3697.52 571C3668.18 516.333 3653.52 453.333 3653.52 382C3653.52 310.667 3668.18 248 3697.52 194C3727.52 139.333 3768.52 96.6667 3820.52 66C3873.18 35.3333 3934.52 20 4004.52 20C4073.85 20 4134.85 35.3333 4187.52 66C4240.18 96.6667 4281.18 139.333 4310.52 194C4339.85 248 4354.52 310.667 4354.52 382C4354.52 453.333 4339.85 516.333 4310.52 571C4281.18 625 4240.18 667.333 4187.52 698C4134.85 728.667 4073.85 744 4004.52 744ZM4004.52 629C4071.18 629 4124.18 607 4163.52 563C4203.52 519 4223.52 458.667 4223.52 382C4223.52 305.333 4203.52 245 4163.52 201C4124.18 157 4071.18 135 4004.52 135C3937.85 135 3884.52 157 3844.52 201C3804.52 245 3784.52 305.333 3784.52 382C3784.52 458.667 3804.52 519 3844.52 563C3884.52 607 3937.85 629 4004.52 629ZM4567.53 732V32H4695.53V632H5005.53V732H4567.53ZM5218.31 732V32H5346.31V732H5218.31ZM5909.98 744C5839.98 744 5778.65 728.667 5725.98 698C5673.98 667.333 5632.98 625 5602.98 571C5573.65 516.333 5558.98 453.333 5558.98 382C5558.98 310.667 5573.65 248 5602.98 194C5632.98 139.333 5673.98 96.6667 5725.98 66C5778.65 35.3333 5839.98 20 5909.98 20C5979.32 20 6040.32 35.3333 6092.98 66C6145.65 96.6667 6186.65 139.333 6215.98 194C6245.32 248 6259.98 310.667 6259.98 382C6259.98 453.333 6245.32 516.333 6215.98 571C6186.65 625 6145.65 667.333 6092.98 698C6040.32 728.667 5979.32 744 5909.98 744ZM5909.98 629C5976.65 629 6029.65 607 6068.98 563C6108.98 519 6128.98 458.667 6128.98 382C6128.98 305.333 6108.98 245 6068.98 201C6029.65 157 5976.65 135 5909.98 135C5843.32 135 5789.98 157 5749.98 201C5709.98 245 5689.98 305.333 5689.98 382C5689.98 458.667 5709.98 519 5749.98 563C5789.98 607 5843.32 629 5909.98 629Z" fill="#1F1F1F" fill-opacity="0.3" shape-rendering="crispEdges"/>
</g>
<defs>
<filter id="filter0_df_458_217" x="-3.57031" y="0" width="6306.55" height="784" filterUnits="userSpaceOnUse" color-interpolation-filters="sRGB">
<feFlood flood-opacity="0" result="BackgroundImageFix"/>
<feColorMatrix in="SourceAlpha" type="matrix" values="0 0 0 0 0 0 0 0 0 0 0 0 0 0 0 0 0 0 127 0" result="hardAlpha"/>
<feOffset dx="13" dy="10"/>
<feGaussianBlur stdDeviation="15"/>
<feComposite in2="hardAlpha" operator="out"/>
<feColorMatrix type="matrix" values="0 0 0 0 0.231373 0 0 0 0 0.180392 0 0 0 0 0.937255 0 0 0 0.25 0"/>
<feBlend mode="normal" in2="BackgroundImageFix" result="effect1_dropShadow_458_217"/>
<feBlend mode="normal" in="SourceGraphic" in2="effect1_dropShadow_458_217" result="shape"/>
<feGaussianBlur stdDeviation="2" result="effect2_foregroundBlur_458_217"/>
</filter>
</defs>
</svg>
