<svg width="712" height="356" viewBox="0 0 712 356" fill="none" xmlns="http://www.w3.org/2000/svg">
<g filter="url(#filter0_d_459_303)">
<rect x="4.00012" width="704" height="348" fill="#1F1F1F"/>
</g>
<path d="M63.3851 203.02C57.5485 203.02 52.5051 201.745 48.2551 199.195C44.0618 196.588 40.8035 192.99 38.4801 188.4C36.1568 183.753 34.9951 178.37 34.9951 172.25C34.9951 166.187 36.1568 160.86 38.4801 156.27C40.8035 151.623 44.0618 147.997 48.2551 145.39C52.5051 142.783 57.5485 141.48 63.3851 141.48C70.1851 141.48 75.7101 143.123 79.9601 146.41C84.2668 149.64 87.0151 154.173 88.2051 160.01H80.3001C79.3935 156.327 77.5235 153.38 74.6901 151.17C71.9135 148.903 68.1451 147.77 63.3851 147.77C59.1351 147.77 55.4235 148.762 52.2501 150.745C49.0768 152.672 46.6118 155.477 44.8551 159.16C43.1551 162.787 42.3051 167.15 42.3051 172.25C42.3051 177.35 43.1551 181.742 44.8551 185.425C46.6118 189.052 49.0768 191.857 52.2501 193.84C55.4235 195.767 59.1351 196.73 63.3851 196.73C68.1451 196.73 71.9135 195.653 74.6901 193.5C77.5235 191.29 79.3935 188.372 80.3001 184.745H88.2051C87.0151 190.468 84.2668 194.945 79.9601 198.175C75.7101 201.405 70.1851 203.02 63.3851 203.02ZM129.747 203.02C123.91 203.02 118.782 201.745 114.362 199.195C109.999 196.588 106.57 192.962 104.077 188.315C101.64 183.668 100.422 178.313 100.422 172.25C100.422 166.187 101.64 160.86 104.077 156.27C106.57 151.623 109.999 147.997 114.362 145.39C118.782 142.783 123.91 141.48 129.747 141.48C135.64 141.48 140.769 142.783 145.132 145.39C149.552 147.997 152.98 151.623 155.417 156.27C157.854 160.86 159.072 166.187 159.072 172.25C159.072 178.313 157.854 183.668 155.417 188.315C152.98 192.962 149.552 196.588 145.132 199.195C140.769 201.745 135.64 203.02 129.747 203.02ZM129.747 196.73C134.11 196.73 137.935 195.767 141.222 193.84C144.565 191.857 147.144 189.052 148.957 185.425C150.827 181.742 151.762 177.35 151.762 172.25C151.762 167.15 150.827 162.787 148.957 159.16C147.144 155.533 144.565 152.757 141.222 150.83C137.935 148.847 134.11 147.855 129.747 147.855C125.384 147.855 121.53 148.847 118.187 150.83C114.9 152.757 112.322 155.533 110.452 159.16C108.639 162.787 107.732 167.15 107.732 172.25C107.732 177.35 108.639 181.742 110.452 185.425C112.322 189.052 114.9 191.857 118.187 193.84C121.53 195.767 125.384 196.73 129.747 196.73ZM173.622 202V142.5H181.952L203.372 183.98L224.622 142.5H233.037V202H225.897V155.25L206.007 193.5H200.652L180.762 155.335V202H173.622ZM249.84 202V142.5H256.98V202H249.84ZM273.846 202V142.5H280.986L312.691 190.185V142.5H319.831V202H312.691L280.986 154.315V202H273.846ZM362.284 203.02C356.731 203.02 351.858 201.745 347.664 199.195C343.471 196.588 340.213 192.99 337.889 188.4C335.566 183.753 334.404 178.398 334.404 172.335C334.404 166.272 335.566 160.917 337.889 156.27C340.269 151.623 343.613 147.997 347.919 145.39C352.283 142.783 357.411 141.48 363.304 141.48C369.991 141.48 375.544 143.095 379.964 146.325C384.441 149.555 387.331 154.003 388.634 159.67H380.389C379.596 156.1 377.698 153.267 374.694 151.17C371.748 149.073 367.951 148.025 363.304 148.025C358.941 148.025 355.144 149.017 351.914 151C348.684 152.927 346.163 155.703 344.349 159.33C342.593 162.957 341.714 167.292 341.714 172.335C341.714 177.378 342.593 181.713 344.349 185.34C346.106 188.967 348.543 191.772 351.659 193.755C354.776 195.682 358.403 196.645 362.539 196.645C368.886 196.645 373.674 194.803 376.904 191.12C380.134 187.38 381.976 182.28 382.429 175.82H365.259V170.21H389.739V202H383.194L382.599 192.225C380.446 195.682 377.811 198.345 374.694 200.215C371.578 202.085 367.441 203.02 362.284 203.02ZM450.98 203.02C446.617 203.02 442.82 202.227 439.59 200.64C436.36 199.053 433.867 196.843 432.11 194.01C430.354 191.177 429.475 187.89 429.475 184.15H436.955C436.955 186.473 437.494 188.627 438.57 190.61C439.647 192.537 441.205 194.095 443.245 195.285C445.342 196.418 447.92 196.985 450.98 196.985C455.004 196.985 458.12 196.022 460.33 194.095C462.54 192.168 463.645 189.76 463.645 186.87C463.645 184.49 463.135 182.592 462.115 181.175C461.095 179.702 459.707 178.512 457.95 177.605C456.25 176.698 454.267 175.905 452 175.225C449.79 174.545 447.467 173.78 445.03 172.93C440.44 171.343 437.04 169.388 434.83 167.065C432.62 164.685 431.515 161.597 431.515 157.8C431.459 154.627 432.195 151.822 433.725 149.385C435.255 146.892 437.409 144.965 440.185 143.605C443.019 142.188 446.362 141.48 450.215 141.48C454.012 141.48 457.299 142.188 460.075 143.605C462.909 145.022 465.09 146.977 466.62 149.47C468.207 151.963 469.029 154.797 469.085 157.97H461.605C461.605 156.327 461.18 154.712 460.33 153.125C459.48 151.482 458.177 150.15 456.42 149.13C454.72 148.11 452.567 147.6 449.96 147.6C446.73 147.543 444.067 148.365 441.97 150.065C439.93 151.765 438.91 154.117 438.91 157.12C438.91 159.67 439.619 161.625 441.035 162.985C442.509 164.345 444.549 165.478 447.155 166.385C449.762 167.235 452.765 168.227 456.165 169.36C458.999 170.38 461.549 171.57 463.815 172.93C466.082 174.29 467.839 176.047 469.085 178.2C470.389 180.353 471.04 183.102 471.04 186.445C471.04 189.278 470.304 191.97 468.83 194.52C467.357 197.013 465.119 199.053 462.115 200.64C459.169 202.227 455.457 203.02 450.98 203.02ZM512.446 203.02C506.609 203.02 501.481 201.745 497.061 199.195C492.698 196.588 489.269 192.962 486.776 188.315C484.339 183.668 483.121 178.313 483.121 172.25C483.121 166.187 484.339 160.86 486.776 156.27C489.269 151.623 492.698 147.997 497.061 145.39C501.481 142.783 506.609 141.48 512.446 141.48C518.339 141.48 523.468 142.783 527.831 145.39C532.251 147.997 535.679 151.623 538.116 156.27C540.553 160.86 541.771 166.187 541.771 172.25C541.771 178.313 540.553 183.668 538.116 188.315C535.679 192.962 532.251 196.588 527.831 199.195C523.468 201.745 518.339 203.02 512.446 203.02ZM512.446 196.73C516.809 196.73 520.634 195.767 523.921 193.84C527.264 191.857 529.843 189.052 531.656 185.425C533.526 181.742 534.461 177.35 534.461 172.25C534.461 167.15 533.526 162.787 531.656 159.16C529.843 155.533 527.264 152.757 523.921 150.83C520.634 148.847 516.809 147.855 512.446 147.855C508.083 147.855 504.229 148.847 500.886 150.83C497.599 152.757 495.021 155.533 493.151 159.16C491.338 162.787 490.431 167.15 490.431 172.25C490.431 177.35 491.338 181.742 493.151 185.425C495.021 189.052 497.599 191.857 500.886 193.84C504.229 195.767 508.083 196.73 512.446 196.73ZM583.351 203.02C577.515 203.02 572.386 201.745 567.966 199.195C563.603 196.588 560.175 192.962 557.681 188.315C555.245 183.668 554.026 178.313 554.026 172.25C554.026 166.187 555.245 160.86 557.681 156.27C560.175 151.623 563.603 147.997 567.966 145.39C572.386 142.783 577.515 141.48 583.351 141.48C589.245 141.48 594.373 142.783 598.736 145.39C603.156 147.997 606.585 151.623 609.021 156.27C611.458 160.86 612.676 166.187 612.676 172.25C612.676 178.313 611.458 183.668 609.021 188.315C606.585 192.962 603.156 196.588 598.736 199.195C594.373 201.745 589.245 203.02 583.351 203.02ZM583.351 196.73C587.715 196.73 591.54 195.767 594.826 193.84C598.17 191.857 600.748 189.052 602.561 185.425C604.431 181.742 605.366 177.35 605.366 172.25C605.366 167.15 604.431 162.787 602.561 159.16C600.748 155.533 598.17 152.757 594.826 150.83C591.54 148.847 587.715 147.855 583.351 147.855C578.988 147.855 575.135 148.847 571.791 150.83C568.505 152.757 565.926 155.533 564.056 159.16C562.243 162.787 561.336 167.15 561.336 172.25C561.336 177.35 562.243 181.742 564.056 185.425C565.926 189.052 568.505 191.857 571.791 193.84C575.135 195.767 578.988 196.73 583.351 196.73ZM627.227 202V142.5H634.367L666.072 190.185V142.5H673.212V202H666.072L634.367 154.315V202H627.227Z" fill="#EFE7D8"/>
<defs>
<filter id="filter0_d_459_303" x="0.00012207" y="0" width="712" height="356" filterUnits="userSpaceOnUse" color-interpolation-filters="sRGB">
<feFlood flood-opacity="0" result="BackgroundImageFix"/>
<feColorMatrix in="SourceAlpha" type="matrix" values="0 0 0 0 0 0 0 0 0 0 0 0 0 0 0 0 0 0 127 0" result="hardAlpha"/>
<feOffset dy="4"/>
<feGaussianBlur stdDeviation="2"/>
<feComposite in2="hardAlpha" operator="out"/>
<feColorMatrix type="matrix" values="0 0 0 0 0 0 0 0 0 0 0 0 0 0 0 0 0 0 0.25 0"/>
<feBlend mode="normal" in2="BackgroundImageFix" result="effect1_dropShadow_459_303"/>
<feBlend mode="normal" in="SourceGraphic" in2="effect1_dropShadow_459_303" result="shape"/>
</filter>
</defs>
</svg>
