<svg width="109" height="75" viewBox="0 0 109 75" fill="none" xmlns="http://www.w3.org/2000/svg">
<g filter="url(#filter0_f_325_4)">
<circle cx="37.5" cy="37.5" r="27.5" fill="white"/>
</g>
<g filter="url(#filter1_d_325_4)">
<g filter="url(#filter2_ddf_325_4)">
<circle cx="39.5801" cy="35.5801" r="21.4138" transform="rotate(-12.6378 39.5801 35.5801)" fill="#242424"/>
</g>
</g>
<g filter="url(#filter3_d_325_4)">
<path d="M39.48 28.88C39.16 28.88 38.8867 28.7733 38.66 28.56C38.4333 28.3333 38.32 28.0533 38.32 27.72C38.32 27.4 38.4333 27.1333 38.66 26.92C38.8867 26.7067 39.16 26.6 39.48 26.6C39.8 26.6 40.0667 26.7067 40.28 26.92C40.5067 27.1333 40.62 27.4 40.62 27.72C40.62 28.0533 40.5067 28.3333 40.28 28.56C40.0667 28.7733 39.8 28.88 39.48 28.88ZM36.44 45.4V43.96H37.22C37.7133 43.96 38.0667 43.8533 38.28 43.64C38.5067 43.44 38.62 43.0933 38.62 42.6V31.08H40.3V42.64C40.3 43.6 40.06 44.3 39.58 44.74C39.1 45.18 38.4 45.4 37.48 45.4H36.44ZM47.8438 41.24C46.6704 41.24 45.7371 40.8867 45.0438 40.18C44.3504 39.46 44.0038 38.36 44.0038 36.88V31.08H45.6838V36.7C45.6838 38.7667 46.5304 39.8 48.2238 39.8C49.0904 39.8 49.8038 39.4933 50.3638 38.88C50.9371 38.2533 51.2238 37.3667 51.2238 36.22V31.08H52.9038V41H51.3838L51.2638 39.22C50.9571 39.8467 50.4971 40.34 49.8838 40.7C49.2838 41.06 48.6038 41.24 47.8438 41.24ZM56.6691 41V26.6H58.3491V41H56.6691ZM63.1227 28.88C62.7893 28.88 62.5093 28.7733 62.2827 28.56C62.0693 28.3333 61.9627 28.0533 61.9627 27.72C61.9627 27.4 62.0693 27.1333 62.2827 26.92C62.5093 26.7067 62.7893 26.6 63.1227 26.6C63.4427 26.6 63.716 26.7067 63.9427 26.92C64.1693 27.1333 64.2827 27.4 64.2827 27.72C64.2827 28.0533 64.1693 28.3333 63.9427 28.56C63.716 28.7733 63.4427 28.88 63.1227 28.88ZM62.2827 41V31.08H63.9627V41H62.2827ZM72.3478 41.24C71.4011 41.24 70.5611 41.0267 69.8278 40.6C69.0945 40.16 68.5145 39.5533 68.0878 38.78C67.6745 38.0067 67.4678 37.0933 67.4678 36.04C67.4678 35 67.6745 34.0933 68.0878 33.32C68.5011 32.5333 69.0745 31.9267 69.8078 31.5C70.5545 31.06 71.4145 30.84 72.3878 30.84C73.3478 30.84 74.1745 31.06 74.8678 31.5C75.5745 31.9267 76.1145 32.4933 76.4878 33.2C76.8611 33.9067 77.0478 34.6667 77.0478 35.48C77.0478 35.6267 77.0411 35.7733 77.0278 35.92C77.0278 36.0667 77.0278 36.2333 77.0278 36.42H69.1278C69.1678 37.18 69.3411 37.8133 69.6478 38.32C69.9678 38.8133 70.3611 39.1867 70.8278 39.44C71.3078 39.6933 71.8145 39.82 72.3478 39.82C73.0411 39.82 73.6211 39.66 74.0878 39.34C74.5545 39.02 74.8945 38.5867 75.1078 38.04H76.7678C76.5011 38.96 75.9878 39.7267 75.2278 40.34C74.4811 40.94 73.5211 41.24 72.3478 41.24ZM72.3478 32.26C71.5478 32.26 70.8345 32.5067 70.2078 33C69.5945 33.48 69.2411 34.1867 69.1478 35.12H75.3878C75.3478 34.2267 75.0411 33.5267 74.4678 33.02C73.8945 32.5133 73.1878 32.26 72.3478 32.26ZM83.8625 41C82.9558 41 82.2425 40.78 81.7225 40.34C81.2025 39.9 80.9425 39.1067 80.9425 37.96V32.5H79.2225V31.08H80.9425L81.1625 28.7H82.6225V31.08H85.5425V32.5H82.6225V37.96C82.6225 38.5867 82.7492 39.0133 83.0025 39.24C83.2558 39.4533 83.7025 39.56 84.3425 39.56H85.3825V41H83.8625ZM92.5969 41C91.6902 41 90.9769 40.78 90.4569 40.34C89.9369 39.9 89.6769 39.1067 89.6769 37.96V32.5H87.9569V31.08H89.6769L89.8969 28.7H91.3569V31.08H94.2769V32.5H91.3569V37.96C91.3569 38.5867 91.4835 39.0133 91.7369 39.24C91.9902 39.4533 92.4369 39.56 93.0769 39.56H94.1169V41H92.5969ZM101.598 41.24C100.651 41.24 99.8111 41.0267 99.0778 40.6C98.3445 40.16 97.7645 39.5533 97.3378 38.78C96.9245 38.0067 96.7178 37.0933 96.7178 36.04C96.7178 35 96.9245 34.0933 97.3378 33.32C97.7511 32.5333 98.3245 31.9267 99.0578 31.5C99.8045 31.06 100.664 30.84 101.638 30.84C102.598 30.84 103.424 31.06 104.118 31.5C104.824 31.9267 105.364 32.4933 105.738 33.2C106.111 33.9067 106.298 34.6667 106.298 35.48C106.298 35.6267 106.291 35.7733 106.278 35.92C106.278 36.0667 106.278 36.2333 106.278 36.42H98.3778C98.4178 37.18 98.5911 37.8133 98.8978 38.32C99.2178 38.8133 99.6111 39.1867 100.078 39.44C100.558 39.6933 101.064 39.82 101.598 39.82C102.291 39.82 102.871 39.66 103.338 39.34C103.804 39.02 104.144 38.5867 104.358 38.04H106.018C105.751 38.96 105.238 39.7267 104.478 40.34C103.731 40.94 102.771 41.24 101.598 41.24ZM101.598 32.26C100.798 32.26 100.084 32.5067 99.4578 33C98.8445 33.48 98.4911 34.1867 98.3978 35.12H104.638C104.598 34.2267 104.291 33.5267 103.718 33.02C103.144 32.5133 102.438 32.26 101.598 32.26Z" fill="white"/>
</g>
<defs>
<filter id="filter0_f_325_4" x="0" y="0" width="75" height="75" filterUnits="userSpaceOnUse" color-interpolation-filters="sRGB">
<feFlood flood-opacity="0" result="BackgroundImageFix"/>
<feBlend mode="normal" in="SourceGraphic" in2="BackgroundImageFix" result="shape"/>
<feGaussianBlur stdDeviation="5" result="effect1_foregroundBlur_325_4"/>
</filter>
<filter id="filter1_d_325_4" x="14.1616" y="14.1616" width="50.8369" height="50.8369" filterUnits="userSpaceOnUse" color-interpolation-filters="sRGB">
<feFlood flood-opacity="0" result="BackgroundImageFix"/>
<feColorMatrix in="SourceAlpha" type="matrix" values="0 0 0 0 0 0 0 0 0 0 0 0 0 0 0 0 0 0 127 0" result="hardAlpha"/>
<feOffset dy="4"/>
<feGaussianBlur stdDeviation="2"/>
<feComposite in2="hardAlpha" operator="out"/>
<feColorMatrix type="matrix" values="0 0 0 0 0 0 0 0 0 0 0 0 0 0 0 0 0 0 0.25 0"/>
<feBlend mode="normal" in2="BackgroundImageFix" result="effect1_dropShadow_325_4"/>
<feBlend mode="normal" in="SourceGraphic" in2="effect1_dropShadow_325_4" result="shape"/>
</filter>
<filter id="filter2_ddf_325_4" x="14.1616" y="10.1616" width="50.8369" height="50.8369" filterUnits="userSpaceOnUse" color-interpolation-filters="sRGB">
<feFlood flood-opacity="0" result="BackgroundImageFix"/>
<feColorMatrix in="SourceAlpha" type="matrix" values="0 0 0 0 0 0 0 0 0 0 0 0 0 0 0 0 0 0 127 0" result="hardAlpha"/>
<feOffset dx="-3" dy="-1"/>
<feComposite in2="hardAlpha" operator="out"/>
<feColorMatrix type="matrix" values="0 0 0 0 0.554167 0 0 0 0 0.554167 0 0 0 0 0.554167 0 0 0 0.25 0"/>
<feBlend mode="normal" in2="BackgroundImageFix" result="effect1_dropShadow_325_4"/>
<feColorMatrix in="SourceAlpha" type="matrix" values="0 0 0 0 0 0 0 0 0 0 0 0 0 0 0 0 0 0 127 0" result="hardAlpha"/>
<feOffset dy="3"/>
<feComposite in2="hardAlpha" operator="out"/>
<feColorMatrix type="matrix" values="0 0 0 0 0 0 0 0 0 0 0 0 0 0 0 0 0 0 0.25 0"/>
<feBlend mode="normal" in2="effect1_dropShadow_325_4" result="effect2_dropShadow_325_4"/>
<feBlend mode="normal" in="SourceGraphic" in2="effect2_dropShadow_325_4" result="shape"/>
<feGaussianBlur stdDeviation="2" result="effect3_foregroundBlur_325_4"/>
</filter>
<filter id="filter3_d_325_4" x="26.44" y="26.6" width="79.8578" height="26.8" filterUnits="userSpaceOnUse" color-interpolation-filters="sRGB">
<feFlood flood-opacity="0" result="BackgroundImageFix"/>
<feColorMatrix in="SourceAlpha" type="matrix" values="0 0 0 0 0 0 0 0 0 0 0 0 0 0 0 0 0 0 127 0" result="hardAlpha"/>
<feOffset dx="-7" dy="5"/>
<feGaussianBlur stdDeviation="1.5"/>
<feComposite in2="hardAlpha" operator="out"/>
<feColorMatrix type="matrix" values="0 0 0 0 0 0 0 0 0 0 0 0 0 0 0 0 0 0 0.6 0"/>
<feBlend mode="normal" in2="BackgroundImageFix" result="effect1_dropShadow_325_4"/>
<feBlend mode="normal" in="SourceGraphic" in2="effect1_dropShadow_325_4" result="shape"/>
</filter>
</defs>
</svg>
