<svg width="127" height="85" viewBox="0 0 127 85" fill="none" xmlns="http://www.w3.org/2000/svg">
<g filter="url(#filter0_f_325_4)">
<circle cx="42.5" cy="42.5" r="32.5" fill="white"/>
</g>
<g filter="url(#filter1_df_325_4)">
<circle cx="44.9583" cy="40.231" r="25.3072" transform="rotate(-12.6378 44.9583 40.231)" fill="#242424"/>
</g>
<g filter="url(#filter2_d_325_4)">
<path d="M44.3891 30.88C44.0691 30.88 43.7958 30.7733 43.5691 30.56C43.3424 30.3333 43.2291 30.0533 43.2291 29.72C43.2291 29.4 43.3424 29.1333 43.5691 28.92C43.7958 28.7067 44.0691 28.6 44.3891 28.6C44.7091 28.6 44.9758 28.7067 45.1891 28.92C45.4158 29.1333 45.5291 29.4 45.5291 29.72C45.5291 30.0533 45.4158 30.3333 45.1891 30.56C44.9758 30.7733 44.7091 30.88 44.3891 30.88ZM41.3491 47.4V45.96H42.1291C42.6224 45.96 42.9758 45.8533 43.1891 45.64C43.4158 45.44 43.5291 45.0933 43.5291 44.6V33.08H45.2091V44.64C45.2091 45.6 44.9691 46.3 44.4891 46.74C44.0091 47.18 43.3091 47.4 42.3891 47.4H41.3491ZM52.7528 43.24C51.5795 43.24 50.6462 42.8867 49.9528 42.18C49.2595 41.46 48.9128 40.36 48.9128 38.88V33.08H50.5928V38.7C50.5928 40.7667 51.4395 41.8 53.1328 41.8C53.9995 41.8 54.7128 41.4933 55.2728 40.88C55.8462 40.2533 56.1328 39.3667 56.1328 38.22V33.08H57.8128V43H56.2928L56.1728 41.22C55.8662 41.8467 55.4062 42.34 54.7928 42.7C54.1928 43.06 53.5128 43.24 52.7528 43.24ZM61.5782 43V28.6H63.2582V43H61.5782ZM68.0317 30.88C67.6984 30.88 67.4184 30.7733 67.1917 30.56C66.9784 30.3333 66.8717 30.0533 66.8717 29.72C66.8717 29.4 66.9784 29.1333 67.1917 28.92C67.4184 28.7067 67.6984 28.6 68.0317 28.6C68.3517 28.6 68.6251 28.7067 68.8517 28.92C69.0784 29.1333 69.1917 29.4 69.1917 29.72C69.1917 30.0533 69.0784 30.3333 68.8517 30.56C68.6251 30.7733 68.3517 30.88 68.0317 30.88ZM67.1917 43V33.08H68.8717V43H67.1917ZM77.2569 43.24C76.3102 43.24 75.4702 43.0267 74.7369 42.6C74.0036 42.16 73.4236 41.5533 72.9969 40.78C72.5836 40.0067 72.3769 39.0933 72.3769 38.04C72.3769 37 72.5836 36.0933 72.9969 35.32C73.4102 34.5333 73.9836 33.9267 74.7169 33.5C75.4636 33.06 76.3236 32.84 77.2969 32.84C78.2569 32.84 79.0836 33.06 79.7769 33.5C80.4836 33.9267 81.0236 34.4933 81.3969 35.2C81.7702 35.9067 81.9569 36.6667 81.9569 37.48C81.9569 37.6267 81.9502 37.7733 81.9369 37.92C81.9369 38.0667 81.9369 38.2333 81.9369 38.42H74.0369C74.0769 39.18 74.2502 39.8133 74.5569 40.32C74.8769 40.8133 75.2702 41.1867 75.7369 41.44C76.2169 41.6933 76.7236 41.82 77.2569 41.82C77.9502 41.82 78.5302 41.66 78.9969 41.34C79.4636 41.02 79.8036 40.5867 80.0169 40.04H81.6769C81.4102 40.96 80.8969 41.7267 80.1369 42.34C79.3902 42.94 78.4302 43.24 77.2569 43.24ZM77.2569 34.26C76.4569 34.26 75.7436 34.5067 75.1169 35C74.5036 35.48 74.1502 36.1867 74.0569 37.12H80.2969C80.2569 36.2267 79.9502 35.5267 79.3769 35.02C78.8036 34.5133 78.0969 34.26 77.2569 34.26ZM88.7716 43C87.8649 43 87.1516 42.78 86.6316 42.34C86.1116 41.9 85.8516 41.1067 85.8516 39.96V34.5H84.1316V33.08H85.8516L86.0716 30.7H87.5316V33.08H90.4516V34.5H87.5316V39.96C87.5316 40.5867 87.6583 41.0133 87.9116 41.24C88.1649 41.4533 88.6116 41.56 89.2516 41.56H90.2916V43H88.7716ZM97.506 43C96.5993 43 95.886 42.78 95.366 42.34C94.846 41.9 94.586 41.1067 94.586 39.96V34.5H92.866V33.08H94.586L94.806 30.7H96.266V33.08H99.186V34.5H96.266V39.96C96.266 40.5867 96.3926 41.0133 96.646 41.24C96.8993 41.4533 97.346 41.56 97.986 41.56H99.026V43H97.506ZM106.507 43.24C105.56 43.24 104.72 43.0267 103.987 42.6C103.254 42.16 102.674 41.5533 102.247 40.78C101.834 40.0067 101.627 39.0933 101.627 38.04C101.627 37 101.834 36.0933 102.247 35.32C102.66 34.5333 103.234 33.9267 103.967 33.5C104.714 33.06 105.574 32.84 106.547 32.84C107.507 32.84 108.334 33.06 109.027 33.5C109.734 33.9267 110.274 34.4933 110.647 35.2C111.02 35.9067 111.207 36.6667 111.207 37.48C111.207 37.6267 111.2 37.7733 111.187 37.92C111.187 38.0667 111.187 38.2333 111.187 38.42H103.287C103.327 39.18 103.5 39.8133 103.807 40.32C104.127 40.8133 104.52 41.1867 104.987 41.44C105.467 41.6933 105.974 41.82 106.507 41.82C107.2 41.82 107.78 41.66 108.247 41.34C108.714 41.02 109.054 40.5867 109.267 40.04H110.927C110.66 40.96 110.147 41.7267 109.387 42.34C108.64 42.94 107.68 43.24 106.507 43.24ZM106.507 34.26C105.707 34.26 104.994 34.5067 104.367 35C103.754 35.48 103.4 36.1867 103.307 37.12H109.547C109.507 36.2267 109.2 35.5267 108.627 35.02C108.054 34.5133 107.347 34.26 106.507 34.26Z" fill="white"/>
</g>
<defs>
<filter id="filter0_f_325_4" x="0" y="0" width="85" height="85" filterUnits="userSpaceOnUse" color-interpolation-filters="sRGB">
<feFlood flood-opacity="0" result="BackgroundImageFix"/>
<feBlend mode="normal" in="SourceGraphic" in2="BackgroundImageFix" result="shape"/>
<feGaussianBlur stdDeviation="5" result="effect1_foregroundBlur_325_4"/>
</filter>
<filter id="filter1_df_325_4" x="15.6456" y="10.9183" width="58.6254" height="58.6254" filterUnits="userSpaceOnUse" color-interpolation-filters="sRGB">
<feFlood flood-opacity="0" result="BackgroundImageFix"/>
<feColorMatrix in="SourceAlpha" type="matrix" values="0 0 0 0 0 0 0 0 0 0 0 0 0 0 0 0 0 0 127 0" result="hardAlpha"/>
<feOffset dy="3"/>
<feComposite in2="hardAlpha" operator="out"/>
<feColorMatrix type="matrix" values="0 0 0 0 0 0 0 0 0 0 0 0 0 0 0 0 0 0 0.25 0"/>
<feBlend mode="normal" in2="BackgroundImageFix" result="effect1_dropShadow_325_4"/>
<feBlend mode="normal" in="SourceGraphic" in2="effect1_dropShadow_325_4" result="shape"/>
<feGaussianBlur stdDeviation="2" result="effect2_foregroundBlur_325_4"/>
</filter>
<filter id="filter2_d_325_4" x="31.3491" y="28.6" width="79.8578" height="26.8" filterUnits="userSpaceOnUse" color-interpolation-filters="sRGB">
<feFlood flood-opacity="0" result="BackgroundImageFix"/>
<feColorMatrix in="SourceAlpha" type="matrix" values="0 0 0 0 0 0 0 0 0 0 0 0 0 0 0 0 0 0 127 0" result="hardAlpha"/>
<feOffset dx="-7" dy="5"/>
<feGaussianBlur stdDeviation="1.5"/>
<feComposite in2="hardAlpha" operator="out"/>
<feColorMatrix type="matrix" values="0 0 0 0 0 0 0 0 0 0 0 0 0 0 0 0 0 0 0.6 0"/>
<feBlend mode="normal" in2="BackgroundImageFix" result="effect1_dropShadow_325_4"/>
<feBlend mode="normal" in="SourceGraphic" in2="effect1_dropShadow_325_4" result="shape"/>
</filter>
</defs>
</svg>
