<svg width="249" height="156" viewBox="0 0 249 156" fill="none" xmlns="http://www.w3.org/2000/svg">
<path d="M78.8 0.2L75.2 0.2C60.2 0.2 48.2 11.3 46.4 25.4C46.4 25.7 46.4 25.4 46.4 25.7V28.7C56.3 33.2 68 33.8 78.8 29.6V0.2ZM100.7 25.4C100.7 25.7 100.7 25.4 100.7 25.7L100.4 28.7C110.6 33.2 122.3 33.8 132.8 29.6V0.2H129.2C114.5 0.2 102.5 11.3 100.7 25.4ZM10.4 88.5242C7.7 81.0242 9.2 73.5242 14.3 66.3242H0.5C0.2 68.4242 0.2 70.8242 0.2 73.2242C0.2 118.824 55.7 155.724 124.1 155.724C192.8 155.724 248.3 118.824 248.3 73.2242C248.3 70.8242 248.3 68.4242 248 66.3242H239.3C237.8 91.2242 201.5 124.524 146.3 132.324C83.3 141.024 20.3 114.324 10.4 88.5242Z" fill="white"/>
</svg>
