<svg width="1302" height="950" viewBox="0 0 1302 950" fill="none" xmlns="http://www.w3.org/2000/svg">
<g filter="url(#filter0_f_517_21)">
<rect x="250" y="88" width="802" height="802" rx="401" fill="#EFE7D8"/>
</g>
<g filter="url(#filter1_df_517_21)">
<circle cx="651" cy="489" r="353" fill="black"/>
</g>
<path d="M466.3 496C465.393 496 464.68 495.78 464.16 495.34C463.64 494.9 463.38 494.107 463.38 492.96V487.5H461.66V486.08H463.38L463.6 483.7H465.06V486.08H467.98V487.5H465.06V492.96C465.06 493.587 465.187 494.013 465.44 494.24C465.693 494.453 466.14 494.56 466.78 494.56H467.82V496H466.3ZM472.114 496V481.6H473.794V487.78C474.128 487.167 474.601 486.693 475.214 486.36C475.828 486.013 476.494 485.84 477.214 485.84C478.361 485.84 479.281 486.2 479.974 486.92C480.668 487.627 481.014 488.72 481.014 490.2V496H479.354V490.38C479.354 488.313 478.521 487.28 476.854 487.28C475.988 487.28 475.261 487.593 474.674 488.22C474.088 488.833 473.794 489.713 473.794 490.86V496H472.114ZM486.58 483.88C486.246 483.88 485.966 483.773 485.74 483.56C485.526 483.333 485.42 483.053 485.42 482.72C485.42 482.4 485.526 482.133 485.74 481.92C485.966 481.707 486.246 481.6 486.58 481.6C486.9 481.6 487.173 481.707 487.4 481.92C487.626 482.133 487.74 482.4 487.74 482.72C487.74 483.053 487.626 483.333 487.4 483.56C487.173 483.773 486.9 483.88 486.58 483.88ZM485.74 496V486.08H487.42V496H485.74ZM496.145 496.24C494.958 496.24 493.972 495.94 493.185 495.34C492.398 494.74 491.938 493.927 491.805 492.9H493.525C493.632 493.42 493.905 493.873 494.345 494.26C494.798 494.633 495.405 494.82 496.165 494.82C496.872 494.82 497.392 494.673 497.725 494.38C498.058 494.073 498.225 493.713 498.225 493.3C498.225 492.7 498.005 492.3 497.565 492.1C497.138 491.9 496.532 491.72 495.745 491.56C495.212 491.453 494.678 491.3 494.145 491.1C493.612 490.9 493.165 490.62 492.805 490.26C492.445 489.887 492.265 489.4 492.265 488.8C492.265 487.933 492.585 487.227 493.225 486.68C493.878 486.12 494.758 485.84 495.865 485.84C496.918 485.84 497.778 486.107 498.445 486.64C499.125 487.16 499.518 487.907 499.625 488.88H497.965C497.898 488.373 497.678 487.98 497.305 487.7C496.945 487.407 496.458 487.26 495.845 487.26C495.245 487.26 494.778 487.387 494.445 487.64C494.125 487.893 493.965 488.227 493.965 488.64C493.965 489.04 494.172 489.353 494.585 489.58C495.012 489.807 495.585 490 496.305 490.16C496.918 490.293 497.498 490.46 498.045 490.66C498.605 490.847 499.058 491.133 499.405 491.52C499.765 491.893 499.945 492.44 499.945 493.16C499.958 494.053 499.618 494.793 498.925 495.38C498.245 495.953 497.318 496.24 496.145 496.24ZM513.638 496L510.738 486.08H512.418L514.518 493.86L516.838 486.08H518.738L521.078 493.86L523.158 486.08H524.858L521.958 496H520.238L517.798 487.82L515.358 496H513.638ZM532.805 496.24C531.858 496.24 531.018 496.027 530.285 495.6C529.552 495.16 528.972 494.553 528.545 493.78C528.132 493.007 527.925 492.093 527.925 491.04C527.925 490 528.132 489.093 528.545 488.32C528.958 487.533 529.532 486.927 530.265 486.5C531.012 486.06 531.872 485.84 532.845 485.84C533.805 485.84 534.632 486.06 535.325 486.5C536.032 486.927 536.572 487.493 536.945 488.2C537.318 488.907 537.505 489.667 537.505 490.48C537.505 490.627 537.498 490.773 537.485 490.92C537.485 491.067 537.485 491.233 537.485 491.42H529.585C529.625 492.18 529.798 492.813 530.105 493.32C530.425 493.813 530.818 494.187 531.285 494.44C531.765 494.693 532.272 494.82 532.805 494.82C533.498 494.82 534.078 494.66 534.545 494.34C535.012 494.02 535.352 493.587 535.565 493.04H537.225C536.958 493.96 536.445 494.727 535.685 495.34C534.938 495.94 533.978 496.24 532.805 496.24ZM532.805 487.26C532.005 487.26 531.292 487.507 530.665 488C530.052 488.48 529.698 489.187 529.605 490.12H535.845C535.805 489.227 535.498 488.527 534.925 488.02C534.352 487.513 533.645 487.26 532.805 487.26ZM547.032 496.24C546.218 496.24 545.492 496.073 544.852 495.74C544.225 495.407 543.745 494.94 543.412 494.34L543.252 496H541.732V481.6H543.412V487.72C543.732 487.24 544.185 486.807 544.772 486.42C545.372 486.033 546.132 485.84 547.052 485.84C548.038 485.84 548.898 486.067 549.632 486.52C550.365 486.973 550.932 487.593 551.332 488.38C551.745 489.167 551.952 490.06 551.952 491.06C551.952 492.06 551.745 492.953 551.332 493.74C550.932 494.513 550.358 495.127 549.612 495.58C548.878 496.02 548.018 496.24 547.032 496.24ZM546.852 494.78C547.518 494.78 548.105 494.627 548.612 494.32C549.118 494 549.518 493.56 549.812 493C550.105 492.44 550.252 491.787 550.252 491.04C550.252 490.293 550.105 489.64 549.812 489.08C549.518 488.52 549.118 488.087 548.612 487.78C548.105 487.46 547.518 487.3 546.852 487.3C546.185 487.3 545.598 487.46 545.092 487.78C544.585 488.087 544.185 488.52 543.892 489.08C543.598 489.64 543.452 490.293 543.452 491.04C543.452 491.787 543.598 492.44 543.892 493C544.185 493.56 544.585 494 545.092 494.32C545.598 494.627 546.185 494.78 546.852 494.78ZM560.09 496.24C558.903 496.24 557.917 495.94 557.13 495.34C556.343 494.74 555.883 493.927 555.75 492.9H557.47C557.577 493.42 557.85 493.873 558.29 494.26C558.743 494.633 559.35 494.82 560.11 494.82C560.817 494.82 561.337 494.673 561.67 494.38C562.003 494.073 562.17 493.713 562.17 493.3C562.17 492.7 561.95 492.3 561.51 492.1C561.083 491.9 560.477 491.72 559.69 491.56C559.157 491.453 558.623 491.3 558.09 491.1C557.557 490.9 557.11 490.62 556.75 490.26C556.39 489.887 556.21 489.4 556.21 488.8C556.21 487.933 556.53 487.227 557.17 486.68C557.823 486.12 558.703 485.84 559.81 485.84C560.863 485.84 561.723 486.107 562.39 486.64C563.07 487.16 563.463 487.907 563.57 488.88H561.91C561.843 488.373 561.623 487.98 561.25 487.7C560.89 487.407 560.403 487.26 559.79 487.26C559.19 487.26 558.723 487.387 558.39 487.64C558.07 487.893 557.91 488.227 557.91 488.64C557.91 489.04 558.117 489.353 558.53 489.58C558.957 489.807 559.53 490 560.25 490.16C560.863 490.293 561.443 490.46 561.99 490.66C562.55 490.847 563.003 491.133 563.35 491.52C563.71 491.893 563.89 492.44 563.89 493.16C563.903 494.053 563.563 494.793 562.87 495.38C562.19 495.953 561.263 496.24 560.09 496.24ZM569.31 483.88C568.977 483.88 568.697 483.773 568.47 483.56C568.257 483.333 568.15 483.053 568.15 482.72C568.15 482.4 568.257 482.133 568.47 481.92C568.697 481.707 568.977 481.6 569.31 481.6C569.63 481.6 569.903 481.707 570.13 481.92C570.357 482.133 570.47 482.4 570.47 482.72C570.47 483.053 570.357 483.333 570.13 483.56C569.903 483.773 569.63 483.88 569.31 483.88ZM568.47 496V486.08H570.15V496H568.47ZM578.995 496C578.089 496 577.375 495.78 576.855 495.34C576.335 494.9 576.075 494.107 576.075 492.96V487.5H574.355V486.08H576.075L576.295 483.7H577.755V486.08H580.675V487.5H577.755V492.96C577.755 493.587 577.882 494.013 578.135 494.24C578.389 494.453 578.835 494.56 579.475 494.56H580.515V496H578.995ZM588.996 496.24C588.05 496.24 587.21 496.027 586.476 495.6C585.743 495.16 585.163 494.553 584.736 493.78C584.323 493.007 584.116 492.093 584.116 491.04C584.116 490 584.323 489.093 584.736 488.32C585.15 487.533 585.723 486.927 586.456 486.5C587.203 486.06 588.063 485.84 589.036 485.84C589.996 485.84 590.823 486.06 591.516 486.5C592.223 486.927 592.763 487.493 593.136 488.2C593.51 488.907 593.696 489.667 593.696 490.48C593.696 490.627 593.69 490.773 593.676 490.92C593.676 491.067 593.676 491.233 593.676 491.42H585.776C585.816 492.18 585.99 492.813 586.296 493.32C586.616 493.813 587.01 494.187 587.476 494.44C587.956 494.693 588.463 494.82 588.996 494.82C589.69 494.82 590.27 494.66 590.736 494.34C591.203 494.02 591.543 493.587 591.756 493.04H593.416C593.15 493.96 592.636 494.727 591.876 495.34C591.13 495.94 590.17 496.24 588.996 496.24ZM588.996 487.26C588.196 487.26 587.483 487.507 586.856 488C586.243 488.48 585.89 489.187 585.796 490.12H592.036C591.996 489.227 591.69 488.527 591.116 488.02C590.543 487.513 589.836 487.26 588.996 487.26ZM606.236 483.88C605.903 483.88 605.623 483.773 605.396 483.56C605.183 483.333 605.076 483.053 605.076 482.72C605.076 482.4 605.183 482.133 605.396 481.92C605.623 481.707 605.903 481.6 606.236 481.6C606.556 481.6 606.829 481.707 607.056 481.92C607.283 482.133 607.396 482.4 607.396 482.72C607.396 483.053 607.283 483.333 607.056 483.56C606.829 483.773 606.556 483.88 606.236 483.88ZM605.396 496V486.08H607.076V496H605.396ZM615.801 496.24C614.614 496.24 613.628 495.94 612.841 495.34C612.054 494.74 611.594 493.927 611.461 492.9H613.181C613.288 493.42 613.561 493.873 614.001 494.26C614.454 494.633 615.061 494.82 615.821 494.82C616.528 494.82 617.048 494.673 617.381 494.38C617.714 494.073 617.881 493.713 617.881 493.3C617.881 492.7 617.661 492.3 617.221 492.1C616.794 491.9 616.188 491.72 615.401 491.56C614.868 491.453 614.334 491.3 613.801 491.1C613.268 490.9 612.821 490.62 612.461 490.26C612.101 489.887 611.921 489.4 611.921 488.8C611.921 487.933 612.241 487.227 612.881 486.68C613.534 486.12 614.414 485.84 615.521 485.84C616.574 485.84 617.434 486.107 618.101 486.64C618.781 487.16 619.174 487.907 619.281 488.88H617.621C617.554 488.373 617.334 487.98 616.961 487.7C616.601 487.407 616.114 487.26 615.501 487.26C614.901 487.26 614.434 487.387 614.101 487.64C613.781 487.893 613.621 488.227 613.621 488.64C613.621 489.04 613.828 489.353 614.241 489.58C614.668 489.807 615.241 490 615.961 490.16C616.574 490.293 617.154 490.46 617.701 490.66C618.261 490.847 618.714 491.133 619.061 491.52C619.421 491.893 619.601 492.44 619.601 493.16C619.614 494.053 619.274 494.793 618.581 495.38C617.901 495.953 616.974 496.24 615.801 496.24ZM634.914 496.24C633.741 496.24 632.807 495.887 632.114 495.18C631.421 494.46 631.074 493.36 631.074 491.88V486.08H632.754V491.7C632.754 493.767 633.601 494.8 635.294 494.8C636.161 494.8 636.874 494.493 637.434 493.88C638.007 493.253 638.294 492.367 638.294 491.22V486.08H639.974V496H638.454L638.334 494.22C638.027 494.847 637.567 495.34 636.954 495.7C636.354 496.06 635.674 496.24 634.914 496.24ZM644.739 496V486.08H646.259L646.359 487.86C646.679 487.233 647.139 486.74 647.739 486.38C648.339 486.02 649.019 485.84 649.779 485.84C650.953 485.84 651.886 486.2 652.579 486.92C653.286 487.627 653.639 488.72 653.639 490.2V496H651.959V490.38C651.959 488.313 651.106 487.28 649.399 487.28C648.546 487.28 647.833 487.593 647.259 488.22C646.699 488.833 646.419 489.713 646.419 490.86V496H644.739ZM662.685 496.24C661.698 496.24 660.831 496.013 660.085 495.56C659.351 495.107 658.778 494.487 658.365 493.7C657.965 492.913 657.765 492.02 657.765 491.02C657.765 490.02 657.971 489.133 658.385 488.36C658.798 487.573 659.371 486.96 660.105 486.52C660.838 486.067 661.705 485.84 662.705 485.84C663.518 485.84 664.238 486.007 664.865 486.34C665.491 486.673 665.978 487.14 666.325 487.74V481.6H668.005V496H666.485L666.325 494.36C666.005 494.84 665.545 495.273 664.945 495.66C664.345 496.047 663.591 496.24 662.685 496.24ZM662.865 494.78C663.531 494.78 664.118 494.627 664.625 494.32C665.145 494 665.545 493.56 665.825 493C666.118 492.44 666.265 491.787 666.265 491.04C666.265 490.293 666.118 489.64 665.825 489.08C665.545 488.52 665.145 488.087 664.625 487.78C664.118 487.46 663.531 487.3 662.865 487.3C662.211 487.3 661.625 487.46 661.105 487.78C660.598 488.087 660.198 488.52 659.905 489.08C659.625 489.64 659.485 490.293 659.485 491.04C659.485 491.787 659.625 492.44 659.905 493C660.198 493.56 660.598 494 661.105 494.32C661.625 494.627 662.211 494.78 662.865 494.78ZM677.203 496.24C676.257 496.24 675.417 496.027 674.683 495.6C673.95 495.16 673.37 494.553 672.943 493.78C672.53 493.007 672.323 492.093 672.323 491.04C672.323 490 672.53 489.093 672.943 488.32C673.357 487.533 673.93 486.927 674.663 486.5C675.41 486.06 676.27 485.84 677.243 485.84C678.203 485.84 679.03 486.06 679.723 486.5C680.43 486.927 680.97 487.493 681.343 488.2C681.717 488.907 681.903 489.667 681.903 490.48C681.903 490.627 681.897 490.773 681.883 490.92C681.883 491.067 681.883 491.233 681.883 491.42H673.983C674.023 492.18 674.197 492.813 674.503 493.32C674.823 493.813 675.217 494.187 675.683 494.44C676.163 494.693 676.67 494.82 677.203 494.82C677.897 494.82 678.477 494.66 678.943 494.34C679.41 494.02 679.75 493.587 679.963 493.04H681.623C681.357 493.96 680.843 494.727 680.083 495.34C679.337 495.94 678.377 496.24 677.203 496.24ZM677.203 487.26C676.403 487.26 675.69 487.507 675.063 488C674.45 488.48 674.097 489.187 674.003 490.12H680.243C680.203 489.227 679.897 488.527 679.323 488.02C678.75 487.513 678.043 487.26 677.203 487.26ZM686.13 496V486.08H687.65L687.79 487.98C688.097 487.327 688.563 486.807 689.19 486.42C689.817 486.033 690.59 485.84 691.51 485.84V487.6H691.05C690.463 487.6 689.923 487.707 689.43 487.92C688.937 488.12 688.543 488.467 688.25 488.96C687.957 489.453 687.81 490.133 687.81 491V496H686.13ZM707.249 496.24C706.302 496.24 705.449 496.027 704.689 495.6C703.942 495.16 703.349 494.553 702.909 493.78C702.482 492.993 702.269 492.08 702.269 491.04C702.269 490 702.482 489.093 702.909 488.32C703.349 487.533 703.942 486.927 704.689 486.5C705.449 486.06 706.302 485.84 707.249 485.84C708.422 485.84 709.409 486.147 710.209 486.76C711.022 487.373 711.535 488.193 711.749 489.22H710.029C709.895 488.607 709.569 488.133 709.049 487.8C708.529 487.453 707.922 487.28 707.229 487.28C706.669 487.28 706.142 487.42 705.649 487.7C705.155 487.98 704.755 488.4 704.449 488.96C704.142 489.52 703.989 490.213 703.989 491.04C703.989 491.867 704.142 492.56 704.449 493.12C704.755 493.68 705.155 494.107 705.649 494.4C706.142 494.68 706.669 494.82 707.229 494.82C707.922 494.82 708.529 494.653 709.049 494.32C709.569 493.973 709.895 493.487 710.029 492.86H711.749C711.549 493.86 711.042 494.673 710.229 495.3C709.415 495.927 708.422 496.24 707.249 496.24ZM720.615 496.24C719.682 496.24 718.842 496.027 718.095 495.6C717.348 495.173 716.755 494.573 716.315 493.8C715.888 493.013 715.675 492.093 715.675 491.04C715.675 489.987 715.895 489.073 716.335 488.3C716.775 487.513 717.368 486.907 718.115 486.48C718.875 486.053 719.722 485.84 720.655 485.84C721.588 485.84 722.428 486.053 723.175 486.48C723.922 486.907 724.508 487.513 724.935 488.3C725.375 489.073 725.595 489.987 725.595 491.04C725.595 492.093 725.375 493.013 724.935 493.8C724.495 494.573 723.895 495.173 723.135 495.6C722.388 496.027 721.548 496.24 720.615 496.24ZM720.615 494.8C721.188 494.8 721.722 494.66 722.215 494.38C722.708 494.1 723.108 493.68 723.415 493.12C723.722 492.56 723.875 491.867 723.875 491.04C723.875 490.213 723.722 489.52 723.415 488.96C723.122 488.4 722.728 487.98 722.235 487.7C721.742 487.42 721.215 487.28 720.655 487.28C720.082 487.28 719.548 487.42 719.055 487.7C718.562 487.98 718.162 488.4 717.855 488.96C717.548 489.52 717.395 490.213 717.395 491.04C717.395 491.867 717.548 492.56 717.855 493.12C718.162 493.68 718.555 494.1 719.035 494.38C719.528 494.66 720.055 494.8 720.615 494.8ZM729.931 496V486.08H731.451L731.551 487.86C731.871 487.233 732.331 486.74 732.931 486.38C733.531 486.02 734.211 485.84 734.971 485.84C736.144 485.84 737.077 486.2 737.771 486.92C738.477 487.627 738.831 488.72 738.831 490.2V496H737.151V490.38C737.151 488.313 736.297 487.28 734.591 487.28C733.737 487.28 733.024 487.593 732.451 488.22C731.891 488.833 731.611 489.713 731.611 490.86V496H729.931ZM747.176 496.24C745.989 496.24 745.003 495.94 744.216 495.34C743.429 494.74 742.969 493.927 742.836 492.9H744.556C744.663 493.42 744.936 493.873 745.376 494.26C745.829 494.633 746.436 494.82 747.196 494.82C747.903 494.82 748.423 494.673 748.756 494.38C749.089 494.073 749.256 493.713 749.256 493.3C749.256 492.7 749.036 492.3 748.596 492.1C748.169 491.9 747.563 491.72 746.776 491.56C746.243 491.453 745.709 491.3 745.176 491.1C744.643 490.9 744.196 490.62 743.836 490.26C743.476 489.887 743.296 489.4 743.296 488.8C743.296 487.933 743.616 487.227 744.256 486.68C744.909 486.12 745.789 485.84 746.896 485.84C747.949 485.84 748.809 486.107 749.476 486.64C750.156 487.16 750.549 487.907 750.656 488.88H748.996C748.929 488.373 748.709 487.98 748.336 487.7C747.976 487.407 747.489 487.26 746.876 487.26C746.276 487.26 745.809 487.387 745.476 487.64C745.156 487.893 744.996 488.227 744.996 488.64C744.996 489.04 745.203 489.353 745.616 489.58C746.043 489.807 746.616 490 747.336 490.16C747.949 490.293 748.529 490.46 749.076 490.66C749.636 490.847 750.089 491.133 750.436 491.52C750.796 491.893 750.976 492.44 750.976 493.16C750.989 494.053 750.649 494.793 749.956 495.38C749.276 495.953 748.349 496.24 747.176 496.24ZM758.847 496C757.94 496 757.227 495.78 756.707 495.34C756.187 494.9 755.927 494.107 755.927 492.96V487.5H754.207V486.08H755.927L756.147 483.7H757.607V486.08H760.527V487.5H757.607V492.96C757.607 493.587 757.734 494.013 757.987 494.24C758.24 494.453 758.687 494.56 759.327 494.56H760.367V496H758.847ZM764.661 496V486.08H766.181L766.321 487.98C766.628 487.327 767.095 486.807 767.721 486.42C768.348 486.033 769.121 485.84 770.041 485.84V487.6H769.581C768.995 487.6 768.455 487.707 767.961 487.92C767.468 488.12 767.075 488.467 766.781 488.96C766.488 489.453 766.341 490.133 766.341 491V496H764.661ZM777.547 496.24C776.374 496.24 775.44 495.887 774.747 495.18C774.054 494.46 773.707 493.36 773.707 491.88V486.08H775.387V491.7C775.387 493.767 776.234 494.8 777.927 494.8C778.794 494.8 779.507 494.493 780.067 493.88C780.64 493.253 780.927 492.367 780.927 491.22V486.08H782.607V496H781.087L780.967 494.22C780.66 494.847 780.2 495.34 779.587 495.7C778.987 496.06 778.307 496.24 777.547 496.24ZM791.932 496.24C790.986 496.24 790.132 496.027 789.372 495.6C788.626 495.16 788.032 494.553 787.592 493.78C787.166 492.993 786.952 492.08 786.952 491.04C786.952 490 787.166 489.093 787.592 488.32C788.032 487.533 788.626 486.927 789.372 486.5C790.132 486.06 790.986 485.84 791.932 485.84C793.106 485.84 794.092 486.147 794.892 486.76C795.706 487.373 796.219 488.193 796.432 489.22H794.712C794.579 488.607 794.252 488.133 793.732 487.8C793.212 487.453 792.606 487.28 791.912 487.28C791.352 487.28 790.826 487.42 790.332 487.7C789.839 487.98 789.439 488.4 789.132 488.96C788.826 489.52 788.672 490.213 788.672 491.04C788.672 491.867 788.826 492.56 789.132 493.12C789.439 493.68 789.839 494.107 790.332 494.4C790.826 494.68 791.352 494.82 791.912 494.82C792.606 494.82 793.212 494.653 793.732 494.32C794.252 493.973 794.579 493.487 794.712 492.86H796.432C796.232 493.86 795.726 494.673 794.912 495.3C794.099 495.927 793.106 496.24 791.932 496.24ZM804.425 496C803.518 496 802.805 495.78 802.285 495.34C801.765 494.9 801.505 494.107 801.505 492.96V487.5H799.785V486.08H801.505L801.725 483.7H803.185V486.08H806.105V487.5H803.185V492.96C803.185 493.587 803.312 494.013 803.565 494.24C803.818 494.453 804.265 494.56 804.905 494.56H805.945V496H804.425ZM811.259 483.88C810.926 483.88 810.646 483.773 810.419 483.56C810.206 483.333 810.099 483.053 810.099 482.72C810.099 482.4 810.206 482.133 810.419 481.92C810.646 481.707 810.926 481.6 811.259 481.6C811.579 481.6 811.853 481.707 812.079 481.92C812.306 482.133 812.419 482.4 812.419 482.72C812.419 483.053 812.306 483.333 812.079 483.56C811.853 483.773 811.579 483.88 811.259 483.88ZM810.419 496V486.08H812.099V496H810.419ZM821.545 496.24C820.611 496.24 819.771 496.027 819.025 495.6C818.278 495.173 817.685 494.573 817.245 493.8C816.818 493.013 816.605 492.093 816.605 491.04C816.605 489.987 816.825 489.073 817.265 488.3C817.705 487.513 818.298 486.907 819.045 486.48C819.805 486.053 820.651 485.84 821.585 485.84C822.518 485.84 823.358 486.053 824.105 486.48C824.851 486.907 825.438 487.513 825.865 488.3C826.305 489.073 826.525 489.987 826.525 491.04C826.525 492.093 826.305 493.013 825.865 493.8C825.425 494.573 824.825 495.173 824.065 495.6C823.318 496.027 822.478 496.24 821.545 496.24ZM821.545 494.8C822.118 494.8 822.651 494.66 823.145 494.38C823.638 494.1 824.038 493.68 824.345 493.12C824.651 492.56 824.805 491.867 824.805 491.04C824.805 490.213 824.651 489.52 824.345 488.96C824.051 488.4 823.658 487.98 823.165 487.7C822.671 487.42 822.145 487.28 821.585 487.28C821.011 487.28 820.478 487.42 819.985 487.7C819.491 487.98 819.091 488.4 818.785 488.96C818.478 489.52 818.325 490.213 818.325 491.04C818.325 491.867 818.478 492.56 818.785 493.12C819.091 493.68 819.485 494.1 819.965 494.38C820.458 494.66 820.985 494.8 821.545 494.8ZM830.86 496V486.08H832.38L832.48 487.86C832.8 487.233 833.26 486.74 833.86 486.38C834.46 486.02 835.14 485.84 835.9 485.84C837.074 485.84 838.007 486.2 838.7 486.92C839.407 487.627 839.76 488.72 839.76 490.2V496H838.08V490.38C838.08 488.313 837.227 487.28 835.52 487.28C834.667 487.28 833.954 487.593 833.38 488.22C832.82 488.833 832.54 489.713 832.54 490.86V496H830.86Z" fill="#EFE7D8"/>
<defs>
<filter id="filter0_f_517_21" x="0" y="-162" width="1302" height="1302" filterUnits="userSpaceOnUse" color-interpolation-filters="sRGB">
<feFlood flood-opacity="0" result="BackgroundImageFix"/>
<feBlend mode="normal" in="SourceGraphic" in2="BackgroundImageFix" result="shape"/>
<feGaussianBlur stdDeviation="125" result="effect1_foregroundBlur_517_21"/>
</filter>
<filter id="filter1_df_517_21" x="98" y="-64" width="1106" height="1106" filterUnits="userSpaceOnUse" color-interpolation-filters="sRGB">
<feFlood flood-opacity="0" result="BackgroundImageFix"/>
<feColorMatrix in="SourceAlpha" type="matrix" values="0 0 0 0 0 0 0 0 0 0 0 0 0 0 0 0 0 0 127 0" result="hardAlpha"/>
<feOffset dy="4"/>
<feGaussianBlur stdDeviation="2"/>
<feComposite in2="hardAlpha" operator="out"/>
<feColorMatrix type="matrix" values="0 0 0 0 0 0 0 0 0 0 0 0 0 0 0 0 0 0 0.25 0"/>
<feBlend mode="normal" in2="BackgroundImageFix" result="effect1_dropShadow_517_21"/>
<feBlend mode="normal" in="SourceGraphic" in2="effect1_dropShadow_517_21" result="shape"/>
<feGaussianBlur stdDeviation="100" result="effect2_foregroundBlur_517_21"/>
</filter>
</defs>
</svg>
