<svg width="1920" height="784" viewBox="0 0 1920 784" fill="none" xmlns="http://www.w3.org/2000/svg">
<g filter="url(#filter0_df_458_172)">
<path d="M62.2734 732L-122.727 32H14.2734L140.273 589L288.273 32H429.273L573.273 589L699.273 32H837.274L647.273 732H495.273L356.273 213L213.273 732H62.2734ZM1030.04 732V32H1487.04V135H1158.04V327H1457.04V427H1158.04V629H1487.04V732H1030.04ZM1708.16 732V32H1989.16C2061.83 32 2117.16 49 2155.16 83C2193.83 116.333 2213.16 159.333 2213.16 212C2213.16 256 2201.16 291.333 2177.16 318C2153.83 344 2125.16 361.667 2091.16 371C2131.16 379 2164.16 399 2190.16 431C2216.16 462.333 2229.16 499 2229.16 541C2229.16 596.333 2209.16 642 2169.16 678C2129.16 714 2072.5 732 1999.16 732H1708.16ZM1836.16 326H1970.16C2006.16 326 2033.83 317.667 2053.16 301C2072.5 284.333 2082.16 260.667 2082.16 230C2082.16 200.667 2072.5 177.667 2053.16 161C2034.5 143.667 2006.16 135 1968.16 135H1836.16V326ZM1836.16 628H1979.16C2017.16 628 2046.5 619.333 2067.16 602C2088.5 584 2099.16 559 2099.16 527C2099.16 494.333 2088.16 468.667 2066.16 450C2044.16 431.333 2014.5 422 1977.16 422H1836.16V628ZM2678.02 744C2626.69 744 2581.36 735.333 2542.02 718C2502.69 700 2471.69 674.667 2449.02 642C2426.36 608.667 2414.69 568.333 2414.02 521H2549.02C2550.36 553.667 2562.02 581.333 2584.02 604C2606.69 626 2637.69 637 2677.02 637C2711.02 637 2738.02 629 2758.02 613C2778.02 596.333 2788.02 574.333 2788.02 547C2788.02 518.333 2779.02 496 2761.02 480C2743.69 464 2720.36 451 2691.02 441C2661.69 431 2630.36 420.333 2597.02 409C2543.02 390.333 2501.69 366.333 2473.02 337C2445.02 307.667 2431.02 268.667 2431.02 220C2430.36 178.667 2440.02 143.333 2460.02 114C2480.69 84 2508.69 61 2544.02 45C2579.36 28.3333 2620.02 20 2666.02 20C2712.69 20 2753.69 28.3333 2789.02 45C2825.02 61.6666 2853.02 84.9999 2873.02 115C2893.69 145 2904.69 180.667 2906.02 222H2769.02C2768.36 197.333 2758.69 175.667 2740.02 157C2722.02 137.667 2696.69 128 2664.02 128C2636.02 127.333 2612.36 134.333 2593.02 149C2574.36 163 2565.02 183.667 2565.02 211C2565.02 234.333 2572.36 253 2587.02 267C2601.69 280.333 2621.69 291.667 2647.02 301C2672.36 310.333 2701.36 320.333 2734.02 331C2768.69 343 2800.36 357 2829.02 373C2857.69 389 2880.69 410.333 2898.02 437C2915.36 463 2924.02 496.667 2924.02 538C2924.02 574.667 2914.69 608.667 2896.02 640C2877.36 671.333 2849.69 696.667 2813.02 716C2776.36 734.667 2731.36 744 2678.02 744ZM3135.7 732V32H3263.7V732H3135.7ZM3662.38 732V135H3458.38V32H3995.38V135H3790.38V732H3662.38ZM4190.2 732V32H4647.2V135H4318.2V327H4617.2V427H4318.2V629H4647.2V732H4190.2ZM5107.32 744C5055.99 744 5010.65 735.333 4971.32 718C4931.99 700 4900.99 674.667 4878.32 642C4855.65 608.667 4843.99 568.333 4843.32 521H4978.32C4979.65 553.667 4991.32 581.333 5013.32 604C5035.99 626 5066.99 637 5106.32 637C5140.32 637 5167.32 629 5187.32 613C5207.32 596.333 5217.32 574.333 5217.32 547C5217.32 518.333 5208.32 496 5190.32 480C5172.99 464 5149.65 451 5120.32 441C5090.99 431 5059.65 420.333 5026.32 409C4972.32 390.333 4930.99 366.333 4902.32 337C4874.32 307.667 4860.32 268.667 4860.32 220C4859.65 178.667 4869.32 143.333 4889.32 114C4909.99 84 4937.99 61 4973.32 45C5008.65 28.3333 5049.32 20 5095.32 20C5141.99 20 5182.99 28.3333 5218.32 45C5254.32 61.6666 5282.32 84.9999 5302.32 115C5322.99 145 5333.99 180.667 5335.32 222H5198.32C5197.65 197.333 5187.99 175.667 5169.32 157C5151.32 137.667 5125.99 128 5093.32 128C5065.32 127.333 5041.65 134.333 5022.32 149C5003.65 163 4994.32 183.667 4994.32 211C4994.32 234.333 5001.65 253 5016.32 267C5030.99 280.333 5050.99 291.667 5076.32 301C5101.65 310.333 5130.65 320.333 5163.32 331C5197.99 343 5229.65 357 5258.32 373C5286.99 389 5309.99 410.333 5327.32 437C5344.65 463 5353.32 496.667 5353.32 538C5353.32 574.667 5343.99 608.667 5325.32 640C5306.65 671.333 5278.99 696.667 5242.32 716C5205.65 734.667 5160.65 744 5107.32 744Z" fill="#1F1F1F" fill-opacity="0.3" shape-rendering="crispEdges"/>
</g>
<defs>
<filter id="filter0_df_458_172" x="-139.727" y="0" width="5536.05" height="784" filterUnits="userSpaceOnUse" color-interpolation-filters="sRGB">
<feFlood flood-opacity="0" result="BackgroundImageFix"/>
<feColorMatrix in="SourceAlpha" type="matrix" values="0 0 0 0 0 0 0 0 0 0 0 0 0 0 0 0 0 0 127 0" result="hardAlpha"/>
<feOffset dx="13" dy="10"/>
<feGaussianBlur stdDeviation="15"/>
<feComposite in2="hardAlpha" operator="out"/>
<feColorMatrix type="matrix" values="0 0 0 0 0.231373 0 0 0 0 0.180392 0 0 0 0 0.937255 0 0 0 0.25 0"/>
<feBlend mode="normal" in2="BackgroundImageFix" result="effect1_dropShadow_458_172"/>
<feBlend mode="normal" in="SourceGraphic" in2="effect1_dropShadow_458_172" result="shape"/>
<feGaussianBlur stdDeviation="2" result="effect2_foregroundBlur_458_172"/>
</filter>
</defs>
</svg>
